# xmcd CD database file
#
# Track frame offsets:
#	150
#	32615
#	41496
#	132068
#	137012
#	215615
#	236347
#
# Disc length: 4189 seconds
#
# Revision: 0
# Processed by: cddbd v1.5.2PL0 Copyright (c) Steve Scherf et al.
# Submitted via: CDex 1.51
#
DISCID=58105b07
DTITLE=Lucille Sander - Lake Moon Meditations
DYEAR=2001
DGENRE=New Age
TTITLE0=Introduction and Helpful Hints
TTITLE1=Instructions for Progressive Relaxation
TTITLE2=Progressive Relaxation with Forrest/Pond/Moon Imagery
TTITLE3=Instructions for Autogenic Relaxation
TTITLE4=Autogenic Relaxation with Ocean Imagery
TTITLE5=Mini-Relaxation/Body Scan
TTITLE6=Introduction to Meditation/Meditation With Chimes
EXTD=YEAR: 2001
EXTT0=
EXTT1=
EXTT2=
EXTT3=
EXTT4=
EXTT5=
EXTT6=
PLAYORDER=
